<svg width="0" height="0" class="hidden">
  <symbol fill="none" xmlns="http://www.w3.org/2000/svg" viewBox="0 0 18 18" id="phone">
    <path d="M3.62 7.79C5.06 10.62 7.38 12.93 10.21 14.38L12.41 12.18C12.68 11.91 13.08 11.82 13.43 11.94C14.55 12.31 15.76 12.51 17 12.51C17.55 12.51 18 12.96 18 13.51V17C18 17.55 17.55 18 17 18C7.61 18 0 10.39 0 1C0 0.45 0.45 0 1 0H4.5C5.05 0 5.5 0.45 5.5 1C5.5 2.25 5.7 3.45 6.07 4.57C6.18 4.92 6.1 5.31 5.82 5.59L3.62 7.79Z" fill="#1F50FE"></path>
  </symbol>
   <symbol fill="none" xmlns="http://www.w3.org/2000/svg" viewBox="0 0 20 20" id="arrow">
    <path d="M2.725 19.6251C2.075 19.6251 1.52083 19.3959 1.0625 18.9376C0.604167 18.4793 0.375 17.9251 0.375 17.2751V2.7251C0.375 2.0751 0.604167 1.51676 1.0625 1.0501C1.52083 0.583431 2.075 0.350098 2.725 0.350098H9.475V2.7251H2.725V17.2751H17.275V10.5251H19.65V17.2751C19.65 17.9251 19.4167 18.4793 18.95 18.9376C18.4833 19.3959 17.925 19.6251 17.275 19.6251H2.725ZM8.125 13.5251L6.5 11.8751L15.65 2.7251H10.975V0.350098H19.65V9.0251H17.275V4.3751L8.125 13.5251Z" fill="#1F50FE"></path>
  </symbol>
</svg>