<svg width="0" height="0" class="hidden">
  <symbol fill="none" xmlns="http://www.w3.org/2000/svg" viewBox="0 0 18 18" id="phone">
    <path d="M3.62 7.79C5.06 10.62 7.38 12.93 10.21 14.38L12.41 12.18C12.68 11.91 13.08 11.82 13.43 11.94C14.55 12.31 15.76 12.51 17 12.51C17.55 12.51 18 12.96 18 13.51V17C18 17.55 17.55 18 17 18C7.61 18 0 10.39 0 1C0 0.45 0.45 0 1 0H4.5C5.05 0 5.5 0.45 5.5 1C5.5 2.25 5.7 3.45 6.07 4.57C6.18 4.92 6.1 5.31 5.82 5.59L3.62 7.79Z" fill="#1F50FE"></path>
  </symbol>
   <symbol fill="none" xmlns="http://www.w3.org/2000/svg" viewBox="0 0 20 20" id="arrow">
    <path d="M2.725 19.6251C2.075 19.6251 1.52083 19.3959 1.0625 18.9376C0.604167 18.4793 0.375 17.9251 0.375 17.2751V2.7251C0.375 2.0751 0.604167 1.51676 1.0625 1.0501C1.52083 0.583431 2.075 0.350098 2.725 0.350098H9.475V2.7251H2.725V17.2751H17.275V10.5251H19.65V17.2751C19.65 17.9251 19.4167 18.4793 18.95 18.9376C18.4833 19.3959 17.925 19.6251 17.275 19.6251H2.725ZM8.125 13.5251L6.5 11.8751L15.65 2.7251H10.975V0.350098H19.65V9.0251H17.275V4.3751L8.125 13.5251Z" fill="#1F50FE"></path>
  </symbol>
   <symbol fill="none" xmlns="http://www.w3.org/2000/svg" viewBox="0 0 60 56" id="company">
    <path d="M58.125 0.5H41.875C40.84 0.5 40 1.34 40 2.375V17.375H1.875C0.84 17.375 0 18.215 0 19.25V53.625C0 54.66 0.84 55.5 1.875 55.5H48.125V21.75C48.125 20.715 48.965 19.875 50 19.875C51.035 19.875 51.875 20.715 51.875 21.75V55.5H58.125C59.16 55.5 60 54.66 60 53.625V2.375C60 1.34 59.16 0.5 58.125 0.5ZM12.5 43.625C12.5 44.66 11.66 45.5 10.625 45.5H9.375C8.34 45.5 7.5 44.66 7.5 43.625V42.375C7.5 41.34 8.34 40.5 9.375 40.5H10.625C11.66 40.5 12.5 41.34 12.5 42.375V43.625ZM12.5 31.125C12.5 32.16 11.66 33 10.625 33H9.375C8.34 33 7.5 32.16 7.5 31.125V29.875C7.5 28.84 8.34 28 9.375 28H10.625C11.66 28 12.5 28.84 12.5 29.875V31.125ZM22.5 43.625C22.5 44.66 21.66 45.5 20.625 45.5H19.375C18.34 45.5 17.5 44.66 17.5 43.625V42.375C17.5 41.34 18.34 40.5 19.375 40.5H20.625C21.66 40.5 22.5 41.34 22.5 42.375V43.625ZM22.5 31.125C22.5 32.16 21.66 33 20.625 33H19.375C18.34 33 17.5 32.16 17.5 31.125V29.875C17.5 28.84 18.34 28 19.375 28H20.625C21.66 28 22.5 28.84 22.5 29.875V31.125ZM32.5 43.625C32.5 44.66 31.66 45.5 30.625 45.5H29.375C28.34 45.5 27.5 44.66 27.5 43.625V42.375C27.5 41.34 28.34 40.5 29.375 40.5H30.625C31.66 40.5 32.5 41.34 32.5 42.375V43.625ZM32.5 31.125C32.5 32.16 31.66 33 30.625 33H29.375C28.34 33 27.5 32.16 27.5 31.125V29.875C27.5 28.84 28.34 28 29.375 28H30.625C31.66 28 32.5 28.84 32.5 29.875V31.125ZM42.5 43.625C42.5 44.66 41.66 45.5 40.625 45.5H39.375C38.34 45.5 37.5 44.66 37.5 43.625V42.375C37.5 41.34 38.34 40.5 39.375 40.5H40.625C41.66 40.5 42.5 41.34 42.5 42.375V43.625ZM42.5 31.125C42.5 32.16 41.66 33 40.625 33H39.375C38.34 33 37.5 32.16 37.5 31.125V29.875C37.5 28.84 38.34 28 39.375 28H40.625C41.66 28 42.5 28.84 42.5 29.875V31.125ZM53.125 13.625H46.875C45.84 13.625 45 12.785 45 11.75C45 10.715 45.84 9.875 46.875 9.875H53.125C54.16 9.875 55 10.715 55 11.75C55 12.785 54.16 13.625 53.125 13.625Z" fill="#1F50FE"></path>
  </symbol>
  <symbol fill="none" xmlns="http://www.w3.org/2000/svg" viewBox="0 0 60 60" id="display">
    <g clip-path="url(#clip0_0_200)">
      <path d="M35.625 30H24.375C21.9625 30 20 28.0375 20 25.625V4.375C20 1.9625 21.9625 0 24.375 0H35.625C38.0375 0 40 1.9625 40 4.375V25.625C40 28.0375 38.0375 30 35.625 30Z" fill="#1F50FE"></path>
      <path d="M13.7525 22.5C12.9925 22.5 12.24 22.155 11.75 21.5L8.00001 16.5C7.33251 15.6125 7.33251 14.3875 8.00001 13.5L11.75 8.49997C12.58 7.39747 14.145 7.16997 15.25 7.99997C16.355 8.82747 16.5775 10.395 15.75 11.5L13.125 15L15.75 18.5C16.58 19.605 16.355 21.1725 15.25 22C14.8 22.3375 14.2725 22.5 13.7525 22.5Z" fill="#1F50FE"></path>
      <path d="M46.2475 22.5C45.7275 22.5 45.2 22.3375 44.75 22C43.645 21.1725 43.4225 19.605 44.25 18.5L46.875 15L44.25 11.5C43.42 10.395 43.645 8.82747 44.75 7.99997C45.8575 7.16997 47.4225 7.39747 48.25 8.49997L52 13.5C52.6675 14.3875 52.6675 15.6125 52 16.5L48.25 21.5C47.76 22.155 47.0075 22.5 46.2475 22.5Z" fill="#1F50FE"></path>
      <path d="M55.625 10L56 10.5C58 13.15 58 16.85 56 19.5L55 20.825V45H5V20.825L4 19.5C2 16.85 2 13.15 4 10.5L4.375 10C1.975 10 0 11.975 0 14.375V45.625C0 48.025 1.975 50 4.375 50H25V55H20C18.62 55 17.5 56.12 17.5 57.5C17.5 58.88 18.62 60 20 60H40C41.3825 60 42.5 58.88 42.5 57.5C42.5 56.12 41.3825 55 40 55H35V50H55.625C58.025 50 60 48.025 60 45.625V14.375C60 11.975 58.025 10 55.625 10Z" fill="#1F50FE"></path>
    </g>
    <defs>
      <clipPath id="clip0_0_200">
        <rect width="60" height="60" fill="white"></rect>
      </clipPath>
    </defs>
  </symbol>
  <symbol fill="none" xmlns="http://www.w3.org/2000/svg" viewBox="0 0 60 57" id="people">
    <path d="M30 23.3898C36.4589 23.3898 41.6949 18.1538 41.6949 11.6949C41.6949 5.23599 36.4589 0 30 0C23.5411 0 18.3051 5.23599 18.3051 11.6949C18.3051 18.1538 23.5411 23.3898 30 23.3898Z" fill="#1F50FE"></path>
    <path d="M9.66102 25.4237C13.8734 25.4237 17.2881 22.0089 17.2881 17.7965C17.2881 13.5842 13.8734 10.1694 9.66102 10.1694C5.44868 10.1694 2.03391 13.5842 2.03391 17.7965C2.03391 22.0089 5.44868 25.4237 9.66102 25.4237Z" fill="#1F50FE"></path>
    <path d="M50.339 25.4237C54.5513 25.4237 57.9661 22.0089 57.9661 17.7965C57.9661 13.5842 54.5513 10.1694 50.339 10.1694C46.1266 10.1694 42.7118 13.5842 42.7118 17.7965C42.7118 22.0089 46.1266 25.4237 50.339 25.4237Z" fill="#1F50FE"></path>
    <path d="M48.1017 38.217C46.4013 37.6808 44.6073 37.5074 42.8356 37.708C41.064 37.9087 39.3542 38.4789 37.8168 39.3818C36.2794 40.2847 34.9486 41.5002 33.9104 42.9497C32.8722 44.3992 32.1498 46.0504 31.7898 47.7966H15.0712C14.3946 47.7892 13.7279 47.6334 13.118 47.3403C12.5082 47.0473 11.97 46.624 11.5415 46.1004C11.1129 45.5769 10.8044 44.9657 10.6376 44.3099C10.4708 43.6542 10.4499 42.9698 10.5763 42.3051C11.4135 38.1883 13.5376 34.4442 16.6419 31.6136C19.7461 28.7829 23.6697 27.0122 27.846 26.5572C32.0224 26.1023 36.2352 26.9865 39.8762 29.0824C43.5171 31.1782 46.3976 34.3771 48.1017 38.217Z" fill="#1F50FE"></path>
    <path d="M14.2983 29.6543C11.3946 32.393 9.25629 35.8423 8.09491 39.6611H1.52542C1.12176 39.6582 0.735462 39.4965 0.450022 39.2111C0.164582 38.9256 0.0029281 38.5393 0 38.1357C0.00150663 36.4591 0.438917 34.8117 1.2693 33.3551C2.09969 31.8986 3.29452 30.683 4.73652 29.8277C6.17852 28.9723 7.81815 28.5066 9.49448 28.4762C11.1708 28.4458 12.8262 28.8518 14.2983 29.6543Z" fill="#1F50FE"></path>
    <path d="M60 38.1357C59.997 38.5393 59.8354 38.9256 59.55 39.2111C59.2645 39.4965 58.8782 39.6582 58.4746 39.6611H52.0881L50.8881 36.9764C49.6636 34.215 47.9003 31.7257 45.7017 29.6543C47.1737 28.8518 48.8292 28.4458 50.5055 28.4762C52.1818 28.5066 53.8214 28.9723 55.2634 29.8277C56.7055 30.683 57.9003 31.8986 58.7307 33.3551C59.5611 34.8117 59.9985 36.4591 60 38.1357Z" fill="#1F50FE"></path>
    <path d="M41.7392 40.3416C41.9786 39.6046 43.0214 39.6046 43.2608 40.3416L44.4533 44.0116C44.5604 44.3412 44.8675 44.5643 45.2141 44.5643H49.0729C49.8479 44.5643 50.1701 45.556 49.5431 46.0116L46.4213 48.2797C46.1409 48.4834 46.0236 48.8445 46.1307 49.1741L47.3231 52.844C47.5626 53.5811 46.719 54.194 46.092 53.7384L42.9702 51.4703C42.6898 51.2666 42.3102 51.2666 42.0298 51.4703L38.908 53.7384C38.281 54.194 37.4374 53.5811 37.6769 52.844L38.8693 49.1741C38.9764 48.8445 38.8591 48.4834 38.5787 48.2797L35.4569 46.0116C34.8299 45.556 35.1521 44.5643 35.9271 44.5643H39.7859C40.1325 44.5643 40.4396 44.3412 40.5467 44.0116L41.7392 40.3416Z" fill="#1F50FE"></path>
  </symbol>
   <symbol xmlns="http://www.w3.org/2000/svg" viewBox="0 0 83 40" id="1C">
    <path d="M42.5583 34.6786C40.9732 34.5729 39.1455 34.295 37.7039 33.8776C37.4339 33.7993 36.3158 33.3883 36.0314 33.2579C31.0127 30.9331 27.5164 25.8583 27.5164 19.9706C27.5164 11.8952 34.0863 5.3175 42.1669 5.3175C50.1758 5.3175 56.7014 11.783 56.8135 19.7671H62.1063C61.9941 8.86599 53.0955 0.031311 42.1669 0.031311C31.1732 0.031311 22.225 8.97427 22.225 19.9706C22.225 27.5516 26.4884 34.145 32.7308 37.5135C33.858 38.1097 35.4757 38.7241 36.0249 38.8924C37.8044 39.4221 39.9883 39.7743 41.9321 39.9217C42.5922 39.9713 44.8974 39.9974 45.5693 40H82.0169V34.7282H45.6306C45.1466 34.7282 43.0319 34.7099 42.5583 34.6786ZM45.6306 26.401C45.2458 26.401 43.2328 26.3879 42.861 26.3566C42.2308 26.3031 41.3176 26.2092 40.7306 26.0748C40.0678 25.8974 39.4456 25.6626 39.1651 25.5086C37.1991 24.4454 35.8592 22.3659 35.8592 19.9706C35.8592 16.4861 38.6811 13.6604 42.1669 13.6604C45.5797 13.6604 48.3546 16.3752 48.4655 19.7671H53.5508C53.4438 13.5703 48.3924 8.57637 42.1669 8.57637C35.8723 8.57637 30.77 13.6773 30.77 19.9706C30.77 24.4089 33.314 28.2417 37.019 30.119C37.5891 30.453 38.6615 30.8026 38.9668 30.8822C40.0131 31.1575 41.4181 31.3454 42.5583 31.4289C42.9797 31.4641 45.0435 31.4797 45.4793 31.4823V31.4902H82.0156V26.401H45.6306ZM18.9635 39.9804H13.6356V5.32925H5.84978V0H18.9635V39.9804ZM0 7.99191V13.1163H5.84978V39.9804H10.969V7.99191H0Z"></path>
  </symbol>
</svg>