<svg width="0" height="0" class="hidden">
  <symbol fill="none" xmlns="http://www.w3.org/2000/svg" viewBox="0 0 18 18" id="phone">
    <path d="M3.62 7.79C5.06 10.62 7.38 12.93 10.21 14.38L12.41 12.18C12.68 11.91 13.08 11.82 13.43 11.94C14.55 12.31 15.76 12.51 17 12.51C17.55 12.51 18 12.96 18 13.51V17C18 17.55 17.55 18 17 18C7.61 18 0 10.39 0 1C0 0.45 0.45 0 1 0H4.5C5.05 0 5.5 0.45 5.5 1C5.5 2.25 5.7 3.45 6.07 4.57C6.18 4.92 6.1 5.31 5.82 5.59L3.62 7.79Z" fill="#1F50FE"></path>
  </symbol>
   <symbol fill="none" xmlns="http://www.w3.org/2000/svg" viewBox="0 0 20 20" id="arrow">
    <path d="M2.725 19.6251C2.075 19.6251 1.52083 19.3959 1.0625 18.9376C0.604167 18.4793 0.375 17.9251 0.375 17.2751V2.7251C0.375 2.0751 0.604167 1.51676 1.0625 1.0501C1.52083 0.583431 2.075 0.350098 2.725 0.350098H9.475V2.7251H2.725V17.2751H17.275V10.5251H19.65V17.2751C19.65 17.9251 19.4167 18.4793 18.95 18.9376C18.4833 19.3959 17.925 19.6251 17.275 19.6251H2.725ZM8.125 13.5251L6.5 11.8751L15.65 2.7251H10.975V0.350098H19.65V9.0251H17.275V4.3751L8.125 13.5251Z" fill="#1F50FE"></path>
  </symbol>
   <symbol fill="none" xmlns="http://www.w3.org/2000/svg" viewBox="0 0 60 56" id="company">
    <path d="M58.125 0.5H41.875C40.84 0.5 40 1.34 40 2.375V17.375H1.875C0.84 17.375 0 18.215 0 19.25V53.625C0 54.66 0.84 55.5 1.875 55.5H48.125V21.75C48.125 20.715 48.965 19.875 50 19.875C51.035 19.875 51.875 20.715 51.875 21.75V55.5H58.125C59.16 55.5 60 54.66 60 53.625V2.375C60 1.34 59.16 0.5 58.125 0.5ZM12.5 43.625C12.5 44.66 11.66 45.5 10.625 45.5H9.375C8.34 45.5 7.5 44.66 7.5 43.625V42.375C7.5 41.34 8.34 40.5 9.375 40.5H10.625C11.66 40.5 12.5 41.34 12.5 42.375V43.625ZM12.5 31.125C12.5 32.16 11.66 33 10.625 33H9.375C8.34 33 7.5 32.16 7.5 31.125V29.875C7.5 28.84 8.34 28 9.375 28H10.625C11.66 28 12.5 28.84 12.5 29.875V31.125ZM22.5 43.625C22.5 44.66 21.66 45.5 20.625 45.5H19.375C18.34 45.5 17.5 44.66 17.5 43.625V42.375C17.5 41.34 18.34 40.5 19.375 40.5H20.625C21.66 40.5 22.5 41.34 22.5 42.375V43.625ZM22.5 31.125C22.5 32.16 21.66 33 20.625 33H19.375C18.34 33 17.5 32.16 17.5 31.125V29.875C17.5 28.84 18.34 28 19.375 28H20.625C21.66 28 22.5 28.84 22.5 29.875V31.125ZM32.5 43.625C32.5 44.66 31.66 45.5 30.625 45.5H29.375C28.34 45.5 27.5 44.66 27.5 43.625V42.375C27.5 41.34 28.34 40.5 29.375 40.5H30.625C31.66 40.5 32.5 41.34 32.5 42.375V43.625ZM32.5 31.125C32.5 32.16 31.66 33 30.625 33H29.375C28.34 33 27.5 32.16 27.5 31.125V29.875C27.5 28.84 28.34 28 29.375 28H30.625C31.66 28 32.5 28.84 32.5 29.875V31.125ZM42.5 43.625C42.5 44.66 41.66 45.5 40.625 45.5H39.375C38.34 45.5 37.5 44.66 37.5 43.625V42.375C37.5 41.34 38.34 40.5 39.375 40.5H40.625C41.66 40.5 42.5 41.34 42.5 42.375V43.625ZM42.5 31.125C42.5 32.16 41.66 33 40.625 33H39.375C38.34 33 37.5 32.16 37.5 31.125V29.875C37.5 28.84 38.34 28 39.375 28H40.625C41.66 28 42.5 28.84 42.5 29.875V31.125ZM53.125 13.625H46.875C45.84 13.625 45 12.785 45 11.75C45 10.715 45.84 9.875 46.875 9.875H53.125C54.16 9.875 55 10.715 55 11.75C55 12.785 54.16 13.625 53.125 13.625Z" fill="#1F50FE"></path>
  </symbol>
  <symbol fill="none" xmlns="http://www.w3.org/2000/svg" viewBox="0 0 60 60" id="display">
    <g clip-path="url(#clip0_0_200)">
      <path d="M35.625 30H24.375C21.9625 30 20 28.0375 20 25.625V4.375C20 1.9625 21.9625 0 24.375 0H35.625C38.0375 0 40 1.9625 40 4.375V25.625C40 28.0375 38.0375 30 35.625 30Z" fill="#1F50FE"></path>
      <path d="M13.7525 22.5C12.9925 22.5 12.24 22.155 11.75 21.5L8.00001 16.5C7.33251 15.6125 7.33251 14.3875 8.00001 13.5L11.75 8.49997C12.58 7.39747 14.145 7.16997 15.25 7.99997C16.355 8.82747 16.5775 10.395 15.75 11.5L13.125 15L15.75 18.5C16.58 19.605 16.355 21.1725 15.25 22C14.8 22.3375 14.2725 22.5 13.7525 22.5Z" fill="#1F50FE"></path>
      <path d="M46.2475 22.5C45.7275 22.5 45.2 22.3375 44.75 22C43.645 21.1725 43.4225 19.605 44.25 18.5L46.875 15L44.25 11.5C43.42 10.395 43.645 8.82747 44.75 7.99997C45.8575 7.16997 47.4225 7.39747 48.25 8.49997L52 13.5C52.6675 14.3875 52.6675 15.6125 52 16.5L48.25 21.5C47.76 22.155 47.0075 22.5 46.2475 22.5Z" fill="#1F50FE"></path>
      <path d="M55.625 10L56 10.5C58 13.15 58 16.85 56 19.5L55 20.825V45H5V20.825L4 19.5C2 16.85 2 13.15 4 10.5L4.375 10C1.975 10 0 11.975 0 14.375V45.625C0 48.025 1.975 50 4.375 50H25V55H20C18.62 55 17.5 56.12 17.5 57.5C17.5 58.88 18.62 60 20 60H40C41.3825 60 42.5 58.88 42.5 57.5C42.5 56.12 41.3825 55 40 55H35V50H55.625C58.025 50 60 48.025 60 45.625V14.375C60 11.975 58.025 10 55.625 10Z" fill="#1F50FE"></path>
    </g>
    <defs>
      <clipPath id="clip0_0_200">
        <rect width="60" height="60" fill="white"></rect>
      </clipPath>
    </defs>
  </symbol>
  <symbol fill="none" xmlns="http://www.w3.org/2000/svg" viewBox="0 0 60 57" id="people">
    <path d="M30 23.3898C36.4589 23.3898 41.6949 18.1538 41.6949 11.6949C41.6949 5.23599 36.4589 0 30 0C23.5411 0 18.3051 5.23599 18.3051 11.6949C18.3051 18.1538 23.5411 23.3898 30 23.3898Z" fill="#1F50FE"></path>
    <path d="M9.66102 25.4237C13.8734 25.4237 17.2881 22.0089 17.2881 17.7965C17.2881 13.5842 13.8734 10.1694 9.66102 10.1694C5.44868 10.1694 2.03391 13.5842 2.03391 17.7965C2.03391 22.0089 5.44868 25.4237 9.66102 25.4237Z" fill="#1F50FE"></path>
    <path d="M50.339 25.4237C54.5513 25.4237 57.9661 22.0089 57.9661 17.7965C57.9661 13.5842 54.5513 10.1694 50.339 10.1694C46.1266 10.1694 42.7118 13.5842 42.7118 17.7965C42.7118 22.0089 46.1266 25.4237 50.339 25.4237Z" fill="#1F50FE"></path>
    <path d="M48.1017 38.217C46.4013 37.6808 44.6073 37.5074 42.8356 37.708C41.064 37.9087 39.3542 38.4789 37.8168 39.3818C36.2794 40.2847 34.9486 41.5002 33.9104 42.9497C32.8722 44.3992 32.1498 46.0504 31.7898 47.7966H15.0712C14.3946 47.7892 13.7279 47.6334 13.118 47.3403C12.5082 47.0473 11.97 46.624 11.5415 46.1004C11.1129 45.5769 10.8044 44.9657 10.6376 44.3099C10.4708 43.6542 10.4499 42.9698 10.5763 42.3051C11.4135 38.1883 13.5376 34.4442 16.6419 31.6136C19.7461 28.7829 23.6697 27.0122 27.846 26.5572C32.0224 26.1023 36.2352 26.9865 39.8762 29.0824C43.5171 31.1782 46.3976 34.3771 48.1017 38.217Z" fill="#1F50FE"></path>
    <path d="M14.2983 29.6543C11.3946 32.393 9.25629 35.8423 8.09491 39.6611H1.52542C1.12176 39.6582 0.735462 39.4965 0.450022 39.2111C0.164582 38.9256 0.0029281 38.5393 0 38.1357C0.00150663 36.4591 0.438917 34.8117 1.2693 33.3551C2.09969 31.8986 3.29452 30.683 4.73652 29.8277C6.17852 28.9723 7.81815 28.5066 9.49448 28.4762C11.1708 28.4458 12.8262 28.8518 14.2983 29.6543Z" fill="#1F50FE"></path>
    <path d="M60 38.1357C59.997 38.5393 59.8354 38.9256 59.55 39.2111C59.2645 39.4965 58.8782 39.6582 58.4746 39.6611H52.0881L50.8881 36.9764C49.6636 34.215 47.9003 31.7257 45.7017 29.6543C47.1737 28.8518 48.8292 28.4458 50.5055 28.4762C52.1818 28.5066 53.8214 28.9723 55.2634 29.8277C56.7055 30.683 57.9003 31.8986 58.7307 33.3551C59.5611 34.8117 59.9985 36.4591 60 38.1357Z" fill="#1F50FE"></path>
    <path d="M41.7392 40.3416C41.9786 39.6046 43.0214 39.6046 43.2608 40.3416L44.4533 44.0116C44.5604 44.3412 44.8675 44.5643 45.2141 44.5643H49.0729C49.8479 44.5643 50.1701 45.556 49.5431 46.0116L46.4213 48.2797C46.1409 48.4834 46.0236 48.8445 46.1307 49.1741L47.3231 52.844C47.5626 53.5811 46.719 54.194 46.092 53.7384L42.9702 51.4703C42.6898 51.2666 42.3102 51.2666 42.0298 51.4703L38.908 53.7384C38.281 54.194 37.4374 53.5811 37.6769 52.844L38.8693 49.1741C38.9764 48.8445 38.8591 48.4834 38.5787 48.2797L35.4569 46.0116C34.8299 45.556 35.1521 44.5643 35.9271 44.5643H39.7859C40.1325 44.5643 40.4396 44.3412 40.5467 44.0116L41.7392 40.3416Z" fill="#1F50FE"></path>
  </symbol>
   <symbol xmlns="http://www.w3.org/2000/svg" viewBox="0 0 83 40" id="1C">
    <path d="M42.5583 34.6786C40.9732 34.5729 39.1455 34.295 37.7039 33.8776C37.4339 33.7993 36.3158 33.3883 36.0314 33.2579C31.0127 30.9331 27.5164 25.8583 27.5164 19.9706C27.5164 11.8952 34.0863 5.3175 42.1669 5.3175C50.1758 5.3175 56.7014 11.783 56.8135 19.7671H62.1063C61.9941 8.86599 53.0955 0.031311 42.1669 0.031311C31.1732 0.031311 22.225 8.97427 22.225 19.9706C22.225 27.5516 26.4884 34.145 32.7308 37.5135C33.858 38.1097 35.4757 38.7241 36.0249 38.8924C37.8044 39.4221 39.9883 39.7743 41.9321 39.9217C42.5922 39.9713 44.8974 39.9974 45.5693 40H82.0169V34.7282H45.6306C45.1466 34.7282 43.0319 34.7099 42.5583 34.6786ZM45.6306 26.401C45.2458 26.401 43.2328 26.3879 42.861 26.3566C42.2308 26.3031 41.3176 26.2092 40.7306 26.0748C40.0678 25.8974 39.4456 25.6626 39.1651 25.5086C37.1991 24.4454 35.8592 22.3659 35.8592 19.9706C35.8592 16.4861 38.6811 13.6604 42.1669 13.6604C45.5797 13.6604 48.3546 16.3752 48.4655 19.7671H53.5508C53.4438 13.5703 48.3924 8.57637 42.1669 8.57637C35.8723 8.57637 30.77 13.6773 30.77 19.9706C30.77 24.4089 33.314 28.2417 37.019 30.119C37.5891 30.453 38.6615 30.8026 38.9668 30.8822C40.0131 31.1575 41.4181 31.3454 42.5583 31.4289C42.9797 31.4641 45.0435 31.4797 45.4793 31.4823V31.4902H82.0156V26.401H45.6306ZM18.9635 39.9804H13.6356V5.32925H5.84978V0H18.9635V39.9804ZM0 7.99191V13.1163H5.84978V39.9804H10.969V7.99191H0Z"></path>
  </symbol>
  <symbol fill="none" xmlns="http://www.w3.org/2000/svg" viewBox="0 0 56 60" id="four">
    <path d="M53.6771 55.9641H37.3991V53.5144C31.9133 48.3926 23.9462 39.6357 23.9462 32.1525C23.9462 23.8184 29.6731 16.7973 37.3991 14.8184V2.01794C37.3991 0.904036 36.4951 0 35.3812 0H2.01794C0.904036 0 0 0.904036 0 2.01794V60H53.6771C54.7916 60 55.6951 59.0965 55.6951 57.9821C55.6951 56.8676 54.7916 55.9641 53.6771 55.9641ZM23.5426 4.30493H26.7713C27.8852 4.30493 28.7892 5.20897 28.7892 6.32287C28.7892 7.43677 27.8852 8.34081 26.7713 8.34081H23.5426C22.4287 8.34081 21.5247 7.43677 21.5247 6.32287C21.5247 5.20897 22.4287 4.30493 23.5426 4.30493ZM13.8565 42.7803H10.6278C9.5139 42.7803 8.60987 41.8762 8.60987 40.7623C8.60987 39.6484 9.5139 38.7444 10.6278 38.7444H13.8565C14.9704 38.7444 15.8744 39.6484 15.8744 40.7623C15.8744 41.8762 14.9704 42.7803 13.8565 42.7803ZM13.8565 34.1704H10.6278C9.5139 34.1704 8.60987 33.2664 8.60987 32.1525C8.60987 31.0386 9.5139 30.1345 10.6278 30.1345H13.8565C14.9704 30.1345 15.8744 31.0386 15.8744 32.1525C15.8744 33.2664 14.9704 34.1704 13.8565 34.1704ZM13.8565 25.5605H10.6278C9.5139 25.5605 8.60987 24.6565 8.60987 23.5426C8.60987 22.4287 9.5139 21.5247 10.6278 21.5247H13.8565C14.9704 21.5247 15.8744 22.4287 15.8744 23.5426C15.8744 24.6565 14.9704 25.5605 13.8565 25.5605ZM13.8565 16.9507H10.6278C9.5139 16.9507 8.60987 16.0466 8.60987 14.9327C8.60987 13.8188 9.5139 12.9148 10.6278 12.9148H13.8565C14.9704 12.9148 15.8744 13.8188 15.8744 14.9327C15.8744 16.0466 14.9704 16.9507 13.8565 16.9507ZM13.8565 8.34081H10.6278C9.5139 8.34081 8.60987 7.43677 8.60987 6.32287C8.60987 5.20897 9.5139 4.30493 10.6278 4.30493H13.8565C14.9704 4.30493 15.8744 5.20897 15.8744 6.32287C15.8744 7.43677 14.9704 8.34081 13.8565 8.34081ZM21.5247 14.9327C21.5247 13.8188 22.4287 12.9148 23.5426 12.9148H26.7713C27.8852 12.9148 28.7892 13.8188 28.7892 14.9327C28.7892 16.0466 27.8852 16.9507 26.7713 16.9507H23.5426C22.4287 16.9507 21.5247 16.0466 21.5247 14.9327Z" fill="#1F50FE"></path>
    <path fill-rule="evenodd" clip-rule="evenodd" d="M27.9563 32.1817C27.9563 24.5418 34.1729 18.3252 41.8128 18.3252C49.4527 18.3252 55.6693 24.5418 55.6693 32.1817C55.6693 38.2651 47.4993 46.9853 43.1648 50.9001C42.394 51.5929 41.2303 51.5916 40.4608 50.9001C36.2245 47.0741 27.9563 38.3001 27.9563 32.1817ZM42.7018 42.2796C42.7018 42.4453 42.8361 42.5796 43.0018 42.5796H45.084C45.2497 42.5796 45.384 42.4453 45.384 42.2796V39.2429C45.384 39.0772 45.5183 38.9429 45.684 38.9429H47.2206C47.3863 38.9429 47.5207 38.8086 47.5207 38.6429V37.2087C47.5207 37.043 47.3863 36.9087 47.2206 36.9087H45.684C45.5183 36.9087 45.384 36.7743 45.384 36.6087V27.4692C45.384 27.3035 45.2497 27.1692 45.084 27.1692H42.958C42.8614 27.1692 42.7707 27.2157 42.7143 27.2942L36.0527 36.5688C36.016 36.6198 35.9963 36.6811 35.9963 36.7439V38.6429C35.9963 38.8086 36.1307 38.9429 36.2963 38.9429H42.4018C42.5675 38.9429 42.7018 39.0772 42.7018 39.2429V42.2796ZM39.3146 36.9087C39.0713 36.9087 38.9292 36.6343 39.0696 36.4356L42.1568 32.066C42.3257 31.827 42.7018 31.9464 42.7018 32.2391V36.6087C42.7018 36.7743 42.5675 36.9087 42.4018 36.9087H39.3146Z" fill="#1F50FE"></path>
  </symbol>
  <symbol fill="none" xmlns="http://www.w3.org/2000/svg" viewBox="0 0 60 60" id="laptop">
    <g clip-path="url(#clip0_0_311)">
      <path d="M57.5 54.5H2.5C1.12 54.5 0 55.6175 0 57C0 58.3825 1.12 59.5 2.5 59.5H57.5C58.88 59.5 60 58.3825 60 57C60 55.6175 58.88 54.5 57.5 54.5Z" fill="#1F50FE"></path>
      <path d="M10 24.5H17.55C17.5 24.875 17.5 25.225 17.5 25.6V29.5H10V54.5H5V29.5C5 26.75 7.25 24.5 10 24.5Z" fill="#1F50FE"></path>
      <path d="M55 29.5V54.5H50V29.5H42.5V25.6C42.5 25.225 42.5 24.875 42.45 24.5H50C52.75 24.5 55 26.75 55 29.5Z" fill="#1F50FE"></path>
      <path d="M39 26H21C20.448 26 20 25.5516 20 24.9991V22.655C20 21.3179 20.52 20.0607 21.464 19.1159L24 16.5777V10.8886C24 8.47249 24.81 6.08839 26.282 4.17469L29.208 0.369327C29.586 -0.123109 30.416 -0.123109 30.794 0.369327L33.72 4.17669C35.19 6.08839 36 8.47249 36 10.8886V16.5777L38.536 19.1159C39.48 20.0607 40 21.3179 40 22.655V24.9991C40 25.5536 39.552 26 39 26Z" fill="#1F50FE"></path>
      <path d="M35 30C33.894 30 33 29.104 33 28V25C33 23.896 33.894 23 35 23C36.106 23 37 23.896 37 25V28C37 29.106 36.106 30 35 30Z" fill="#1F50FE"></path>
      <path d="M25 30C23.894 30 23 29.104 23 28V25C23 23.896 23.894 23 25 23C26.106 23 27 23.896 27 25V28C27 29.106 26.106 30 25 30Z" fill="#1F50FE"></path>
      <path d="M18.6469 48.3529C21.4879 48.3529 23.4277 46.5677 23.4277 43.9412C23.4277 41.5294 21.7282 39.787 19.3593 39.787C18.0976 39.787 17.1105 40.3106 16.6041 41.1432H16.5526L16.8359 37.7528H22.6809V35.6929H14.8017L14.1923 42.8169H16.5097C16.9389 42.1045 17.7457 41.6753 18.6812 41.6753C20.0202 41.6753 20.9557 42.6366 20.9557 44.0099C20.9557 45.3574 20.0202 46.3016 18.6641 46.3016C17.4624 46.3016 16.5355 45.5806 16.3895 44.5335H13.9949C14.0721 46.7737 15.9861 48.3529 18.6469 48.3529Z" fill="#1F50FE"></path>
      <path d="M29.7191 48.3529C32.8347 48.3529 34.723 45.8553 34.723 41.8556C34.723 37.8558 32.8175 35.4097 29.7191 35.4097C26.6206 35.4097 24.7065 37.8644 24.7065 41.8641C24.7065 45.8724 26.6034 48.3529 29.7191 48.3529ZM29.7191 46.2758C28.2428 46.2758 27.3415 44.6794 27.3415 41.8641C27.3415 39.0746 28.2599 37.4868 29.7191 37.4868C31.1868 37.4868 32.088 39.0661 32.088 41.8641C32.088 44.688 31.1953 46.2758 29.7191 46.2758Z" fill="#1F50FE"></path>
      <path d="M41.1689 48.3529C44.2845 48.3529 46.1728 45.8553 46.1728 41.8556C46.1728 37.8558 44.2674 35.4097 41.1689 35.4097C38.0704 35.4097 36.1564 37.8644 36.1564 41.8641C36.1564 45.8724 38.0532 48.3529 41.1689 48.3529ZM41.1689 46.2758C39.6926 46.2758 38.7914 44.6794 38.7914 41.8641C38.7914 39.0746 39.7097 37.4868 41.1689 37.4868C42.6366 37.4868 43.5378 39.0661 43.5378 41.8641C43.5378 44.688 42.6452 46.2758 41.1689 46.2758Z" fill="#1F50FE"></path>
    </g>
    <defs>
      <clipPath id="clip0_0_311">
        <rect width="60" height="60" fill="white"></rect>
      </clipPath>
    </defs>
  </symbol>
  <symbol fill="none" xmlns="http://www.w3.org/2000/svg" viewBox="0 0 60 60" id="ten">
    <g clip-path="url(#clip0_0_297)">
      <path d="M59.8826 47.2847C59.6741 46.6478 59.1247 46.1843 58.4621 46.0882L53.2091 45.3415L50.9107 40.6879C50.3202 39.4862 48.3497 39.4862 47.759 40.6879L45.4606 45.3415L40.3248 46.0882C40.0774 46.1241 39.8714 46.2552 39.6674 46.3835C39.4633 46.2552 39.2573 46.1241 39.0099 46.0882L33.8741 45.3415L31.5757 40.6879C30.9852 39.4862 29.0147 39.4862 28.424 40.6879L26.1256 45.3415L20.9897 46.0882C20.7423 46.1241 20.5363 46.2552 20.3322 46.3835C20.1282 46.2552 19.9222 46.1241 19.6748 46.0882L14.539 45.3415L12.2406 40.6879C11.6501 39.4862 9.67954 39.4862 9.08892 40.6879L6.79052 45.3415L1.53736 46.0882C0.874779 46.1843 0.325404 46.6478 0.117748 47.2847C-0.088268 47.9198 0.0834117 48.6185 0.562357 49.0853L4.28048 52.7089L3.40333 57.9431C3.29001 58.6023 3.5613 59.2684 4.10201 59.6613C4.64623 60.0579 5.36376 60.1111 5.95415 59.7953L10.6649 57.3802L15.2584 59.7953C15.8494 60.1064 16.5658 60.0571 17.1105 59.6613C17.6512 59.2683 17.9225 58.6022 17.8092 57.9431L16.932 52.7089L20.3326 49.3948L23.7331 52.7089L22.856 57.9431C22.7427 58.6023 23.014 59.2684 23.5547 59.6613C24.0989 60.0579 24.8164 60.1111 25.4068 59.7953L30 57.3803L34.5935 59.7954C35.1845 60.1065 35.901 60.0572 36.4456 59.6614C36.9863 59.2684 37.2576 58.6023 37.1443 57.9432L36.2672 52.7091L39.6677 49.3949L43.0683 52.7091L42.1911 57.9432C42.0778 58.6024 42.3491 59.2685 42.8898 59.6614C43.434 60.058 44.1515 60.1112 44.7419 59.7954L49.3355 57.3803L54.0462 59.7954C54.6371 60.1065 55.3536 60.0572 55.8983 59.6614C56.439 59.2684 56.7103 58.6023 56.597 57.9432L55.7198 52.7091L59.438 49.0854C59.9169 48.6185 60.0886 47.9198 59.8826 47.2847Z" fill="#1F50FE"></path>
      <path fill-rule="evenodd" clip-rule="evenodd" d="M30 37.5C40.3553 37.5 48.75 29.1053 48.75 18.75C48.75 8.39466 40.3553 0 30 0C19.6447 0 11.25 8.39466 11.25 18.75C11.25 29.1053 19.6447 37.5 30 37.5ZM42.9099 18.7733C42.9099 24.1063 40.3922 27.4365 36.2379 27.4365C32.0837 27.4365 29.5546 24.1292 29.5546 18.7848C29.5546 13.4518 32.1066 10.1788 36.2379 10.1788C40.3693 10.1788 42.9099 13.4404 42.9099 18.7733ZM33.0679 18.7848C33.0679 22.5385 34.2696 24.6671 36.2379 24.6671C38.2063 24.6671 39.3965 22.5499 39.3965 18.7848C39.3965 15.054 38.1949 12.9483 36.2379 12.9483C34.2924 12.9483 33.0679 15.0655 33.0679 18.7848ZM26.0641 27.0703H22.6424V13.7265H22.5737L18.3623 16.6333V13.5205L22.6309 10.5565H26.0641V27.0703Z" fill="#1F50FE"></path>
    </g>
    <defs>
      <clipPath id="clip0_0_297">
        <rect width="60" height="60" fill="white"></rect>
      </clipPath>
    </defs>
  </symbol>
  <symbol fill="none" xmlns="http://www.w3.org/2000/svg" viewBox="0 0 60 60" id="image1">
    <g clip-path="url(#clip0_0_351)">
      <path d="M52.5 2.5H7.5C3.375 2.5 0 5.875 0 10V50C0 54.125 3.375 57.5 7.5 57.5H52.5C56.625 57.5 60 54.125 60 50V10C60 5.875 56.625 2.5 52.5 2.5ZM55 50C55 51.375 53.875 52.5 52.5 52.5H7.5C6.125 52.5 5 51.375 5 50V15H55V50Z" fill="#1A233B"></path>
      <path d="M40.4445 41.1241C39.8822 41.1241 39.3198 40.9323 38.8582 40.5357C37.8376 39.6581 37.7173 38.1206 38.5949 37.0967L42.1088 32.9978L38.5917 28.8956C37.7141 27.8749 37.8343 26.3342 38.855 25.4566C39.8789 24.5789 41.4164 24.6992 42.294 25.7198L47.1698 31.4083C47.9532 32.3216 47.9532 33.6674 47.1698 34.584L42.294 40.2724C41.813 40.8348 41.1304 41.1241 40.4445 41.1241Z" fill="#1A233B"></path>
      <path d="M19.3161 41.1246C18.6303 41.1246 17.9476 40.8353 17.4633 40.273L12.5875 34.5846C11.8042 33.6712 11.8042 32.3254 12.5875 31.4088L17.4633 25.7204C18.3377 24.6965 19.8785 24.5795 20.9024 25.4603C21.923 26.338 22.0433 27.8755 21.1657 28.8994L17.6518 32.9983L21.1689 37.1005C22.0465 38.1211 21.9263 39.6619 20.9056 40.5395C20.444 40.9296 19.8785 41.1246 19.3161 41.1246Z" fill="#1A233B"></path>
      <path d="M26.8963 45.9384C25.5831 45.6361 24.7672 44.3261 25.0663 43.0162L29.9421 21.8878C30.2444 20.5746 31.5511 19.7717 32.8643 20.0577C34.1775 20.36 34.9934 21.67 34.6943 22.98L29.8185 44.1083C29.5227 45.3988 28.2388 46.2407 26.8963 45.9384Z" fill="#1A233B"></path>
    </g>
    <defs>
      <clipPath id="clip0_0_351">
        <rect width="60" height="60" fill="white"></rect>
      </clipPath>
    </defs>
  </symbol>
  <symbol fill="none" xmlns="http://www.w3.org/2000/svg" viewBox="0 0 60 60" id="image2">
    <g clip-path="url(#clip0_0_364)">
      <path d="M52.5 2.5H7.5C3.365 2.5 0 5.865 0 10V50C0 54.135 3.365 57.5 7.5 57.5H52.5C56.635 57.5 60 54.135 60 50V10C60 5.865 56.635 2.5 52.5 2.5ZM52.5 52.5H7.5C6.1225 52.5 5 51.38 5 50V15H55V50C55 51.38 53.8775 52.5 52.5 52.5Z" fill="#1A233B"></path>
      <path d="M48.125 37.5H44.375C41.9625 37.5 40 39.4625 40 41.875H31.875V28.125H40.32C41.1225 30.6525 43.4625 32.5 46.25 32.5C49.695 32.5 52.5 29.695 52.5 26.25C52.5 22.805 49.695 20 46.25 20C43.4625 20 41.1225 21.8475 40.32 24.375H19.68C18.8775 21.8475 16.5375 20 13.75 20C10.305 20 7.5 22.805 7.5 26.25C7.5 29.695 10.305 32.5 13.75 32.5C16.5375 32.5 18.8775 30.6525 19.68 28.125H28.125V41.875H20C20 39.4625 18.0375 37.5 15.625 37.5H11.875C9.4625 37.5 7.5 39.4625 7.5 41.875V45.625C7.5 48.0375 9.4625 50 11.875 50H15.625C18.0375 50 20 48.0375 20 45.625H40C40 48.0375 41.9625 50 44.375 50H48.125C50.5375 50 52.5 48.0375 52.5 45.625V41.875C52.5 39.4625 50.5375 37.5 48.125 37.5Z" fill="#1A233B"></path>
    </g>
    <defs>
      <clipPath id="clip0_0_364">
        <rect width="60" height="60" fill="white"></rect>
      </clipPath>
    </defs>
  </symbol>
  <symbol fill="none" xmlns="http://www.w3.org/2000/svg" viewBox="0 0 60 60" id="image3">
    <g clip-path="url(#clip0_0_374)">
      <path d="M52.5 2.5H7.5C3.365 2.5 0 5.865 0 10V50C0 54.135 3.365 57.5 7.5 57.5H52.5C56.635 57.5 60 54.135 60 50V10C60 5.865 56.635 2.5 52.5 2.5ZM52.5 52.5H7.5C6.1225 52.5 5 51.38 5 50V15H55V50C55 51.38 53.8775 52.5 52.5 52.5Z" fill="#1A233B"></path>
      <path d="M42.5 34.925C42.5 41.825 36.9 47.425 30 47.425C27.225 47.425 24.65 46.525 22.6 44.975L31.325 36.25C31.675 35.9 31.875 35.425 31.875 34.925V22.575C37.9 23.475 42.5 28.675 42.5 34.925Z" fill="#1A233B"></path>
      <path d="M28.125 22.575V34.15L19.95 42.325C18.4 40.275 17.5 37.7 17.5 34.925C17.5 28.675 22.1 23.475 28.125 22.575Z" fill="#1A233B"></path>
    </g>
    <defs>
      <clipPath id="clip0_0_374">
        <rect width="60" height="60" fill="white"></rect>
      </clipPath>
    </defs>
  </symbol>
</svg>